# xmcd
#
# Track frame offsets: 
#        150
#        14173
#        30087
#        41160
#        52300
#        65856
#        78716
#        90293
#        102733
#        117804
#        131661
#        142813
#        154981
#        169217
#        182484
#        193758
#        203335
#        219130
#        232163
#        246279
#        259184
#        271380
#        284758
#        296135
#        308887
#        322397
#        333716
#
# Disc length: 4522 seconds
#
# Revision: 0
# Processed by: cddbd v1.5.2PL0 Copyright (c) Steve Scherf et al.
# Submitted via: ExactAudioCopy v0.99pb5
#
DISCID=ae11a81b
DTITLE=Various Artist - Hollywood Blues - CD2
DYEAR=1953
DGENRE=Blues
TTITLE0=James Tisdom - Winehead Swing (1949-50)
TTITLE1=R.Green and Turner - Central Avenue Blues (1948)
TTITLE2=Charles Lacy - Last Pair Of Shoes (1953)
TTITLE3=Black Diamond - Lonesome Blues (1948)
TTITLE4=Soldier Boy Houston - Trailway Bus Station (1953)
TTITLE5=Soldier Boy Houston - At The Station Crying (1953)
TTITLE6=John Hogg - Worryin' Blues (1951)
TTITLE7=Sonny Boy Johnson - Swimming Pool Blues (1948)
TTITLE8=Big Son Tillis - I Got A Letter (1953)
TTITLE9=Little Son Willis - Harlem Blues (1952)
TTITLE10=Beverly Scott - Brownskin Woman (1948)
TTITLE11=Charles Lacy - Rampart Street Blues Part 2 (1953)
TTITLE12=Sidney Maiden - Everything I Do Is Wrong (1952)
TTITLE13=Sonny Boy Johnson - Desert Blues (1948)
TTITLE14=Smokey Hogg - Penetentiary Blues Part 1 (1950-51)
TTITLE15=Smokey Hogg - Penetentiary Blues Part 2 (1950-51)
TTITLE16=Little Son Willis - Operator Blues (1952)
TTITLE17=James 'Little' Houston - New Orleans Blues Take 2 (1953)
TTITLE18=James Tisdom - Throw This Poor Dog A Bone (1949-50)
TTITLE19=Slim Green - Baby I Love You (1948)
TTITLE20=Sonny Boy Holmes - Walking And Crying Blues (1952)
TTITLE21=Ernest McClay - Big Timing Woman (1948)
TTITLE22=Mac Willis - Howling Wolf (1951)
TTITLE23=Sonny Boy Johnson - Come And Go With Me (1948)
TTITLE24=Beverly Scott - Little Girl Blues (1948)
TTITLE25=Soldier Boy Houston - Old Hen (1953)
TTITLE26=Soldier Boy Houston - Hollywood Blues (fragment) (1953)
EXTD=
EXTT0=
EXTT1=
EXTT2=
EXTT3=
EXTT4=
EXTT5=
EXTT6=
EXTT7=
EXTT8=
EXTT9=
EXTT10=
EXTT11=
EXTT12=
EXTT13=
EXTT14=
EXTT15=
EXTT16=
EXTT17=
EXTT18=
EXTT19=
EXTT20=
EXTT21=
EXTT22=
EXTT23=
EXTT24=
EXTT25=
EXTT26=
PLAYORDER=
